<svg id="Flat" height="512" viewBox="0 0 512 512" width="512" xmlns="http://www.w3.org/2000/svg"><path d="m200 24h288v288h-288z" fill="#57a6bd"/><path d="m416 56a23.919 23.919 0 0 0 -8.453 1.537z" fill="none"/><path d="m416 56h-288a24.006 24.006 0 0 0 -24 24v24h48v192h288v-216a24.006 24.006 0 0 0 -24-24z" fill="#e9eef2"/><path d="m344 160h-81.455a8 8 0 0 1 0-16h81.455a8 8 0 0 1 0 16z" fill="#b6b9ba"/><path d="m344 192h-112a8 8 0 0 1 0-16h112a8 8 0 0 1 0 16z" fill="#b6b9ba"/><path d="m216 232-32-64h-144a16 16 0 0 0 -16 16v288a16 16 0 0 0 16 16h432a16 16 0 0 0 16-16v-240z" fill="#f2c837"/><path d="m296 360h160v96h-160z" fill="#e9eef2"/><path d="m56 200h32v32h-32z" fill="#eb423f"/><path d="m376 152h32v32h-32z" fill="#f2c837"/><path d="m424 400h-80a8 8 0 0 1 0-16h80a8 8 0 0 1 0 16z" fill="#b6b9ba"/><path d="m424 432h-96a8 8 0 0 1 0-16h96a8 8 0 0 1 0 16z" fill="#b6b9ba"/><path d="m416 56a24.006 24.006 0 0 0 -24 24v24h-288v-24a24.006 24.006 0 0 1 24-24z" fill="#d0d2d4"/></svg>